<svg width="77" height="30" viewBox="0 0 77 30" fill="none" xmlns="http://www.w3.org/2000/svg">
<path d="M16.6406 15.75H29.5312V17.0156H26.3438V28.5938L21.2344 27.4688C19.1719 28.5 16.875 29.0156 14.3438 29.0156C11.1562 29.0156 8.3125 28.1719 5.8125 26.4844C1.9375 23.8281 0 19.7969 0 14.3906C0 10.0156 1.35938 6.5 4.07812 3.84375C6.76562 1.28125 10.1562 0 14.25 0C16.5625 0 18.7656 0.46875 20.8594 1.40625L25.1719 0.515625L25.3594 10.1719H24C23.625 8.57812 23.1719 7.20312 22.6406 6.04688C21.1406 2.95312 18.6562 1.40625 15.1875 1.40625C9.40625 1.4375 6.5 5.82812 6.46875 14.5781C6.46875 16.8906 6.65625 18.8906 7.03125 20.5781C8.0625 25.2656 10.7031 27.6094 14.9531 27.6094C17.2969 27.6094 19.2188 26.875 20.7188 25.4062V17.0156H16.6406V15.75ZM45.1406 28.5938H31.875V27.3281H35.625V1.73438H31.875V0.46875H45.1406V1.73438H41.3906V27.3281H43.875C44.5312 27.3906 44.9531 27.8125 45.1406 28.5938ZM76.1719 28.5938H64.4062V27.3281H67.6406L64.125 18.3281H54.6562L51.2344 27.3281H53.7188C53.9062 27.3281 54.0781 27.3438 54.2344 27.375C54.6719 27.4688 54.8906 27.875 54.8906 28.5938H46.3594V27.3281H49.3594L59.6719 0.46875H62.5781L73.5469 27.3281H75C75.2188 27.3281 75.3906 27.3438 75.5156 27.375C75.9531 27.4688 76.1719 27.875 76.1719 28.5938ZM63.5625 16.9219L59.3438 5.95312L55.1719 16.9219H63.5625Z" fill="#AAA3A3"/>
</svg>
