<svg width="84" height="30" viewBox="0 0 84 30" fill="none" xmlns="http://www.w3.org/2000/svg">
<path d="M16.6406 15.75H29.5312V17.0156H26.3438V28.5938L21.2344 27.4688C19.1719 28.5 16.875 29.0156 14.3438 29.0156C11.1562 29.0156 8.3125 28.1719 5.8125 26.4844C1.9375 23.8281 0 19.7969 0 14.3906C0 10.0156 1.35938 6.5 4.07812 3.84375C6.76562 1.28125 10.1562 0 14.25 0C16.5625 0 18.7656 0.46875 20.8594 1.40625L25.1719 0.515625L25.3594 10.1719H24C23.625 8.57812 23.1719 7.20312 22.6406 6.04688C21.1406 2.95312 18.6562 1.40625 15.1875 1.40625C9.40625 1.4375 6.5 5.82812 6.46875 14.5781C6.46875 16.8906 6.65625 18.8906 7.03125 20.5781C8.0625 25.2656 10.7031 27.6094 14.9531 27.6094C17.2969 27.6094 19.2188 26.875 20.7188 25.4062V17.0156H16.6406V15.75ZM45.1406 28.5938H31.875V27.3281H35.625V1.73438H31.875V0.46875H46.9688C49.4375 0.46875 51.5312 1.04688 53.25 2.20312C55.3125 3.60938 56.3438 5.48438 56.3438 7.82812C56.3438 8.60938 56.2188 9.39062 55.9688 10.1719C55.0938 12.7031 53.0625 14.3906 49.875 15.2344L57.2344 27.375H58.2188C58.4062 27.375 58.5938 27.3906 58.7812 27.4219C59.1875 27.5156 59.3906 27.9062 59.3906 28.5938L51.5156 28.6406L44.3906 15.75H41.3906V27.3281H45.1406V28.5938ZM44.625 1.73438H41.3906V14.3438H44.9062C46 14.3438 46.9688 14.0469 47.8125 13.4531C49.4062 12.2969 50.2031 10.4688 50.2031 7.96875C50.2031 7 50.0469 6.09375 49.7344 5.25C48.8594 2.90625 47.1562 1.73438 44.625 1.73438ZM83.1562 20.9062C83.1562 22.9375 82.4375 24.6562 81 26.0625C78.9375 28.0625 75.9844 29.0625 72.1406 29.0625C68.8594 29.0625 66 28.2656 63.5625 26.6719C63.5625 27.2656 63.5312 27.7031 63.4688 27.9844C63.3125 28.4531 62.8438 28.6875 62.0625 28.6875V18.8438H63.75C63.8438 20.0625 64.0469 21.1875 64.3594 22.2188C65.5469 25.875 68 27.7031 71.7188 27.7031C72.7188 27.7031 73.625 27.5312 74.4375 27.1875C76.4688 26.375 77.4844 24.875 77.4844 22.6875C77.4844 21.9688 77.3125 21.2812 76.9688 20.625C76.3125 19.3125 74.6094 17.9844 71.8594 16.6406C68.8906 15.1719 67.1719 14.3125 66.7031 14.0625C63.7656 12.2812 62.2969 10.0781 62.2969 7.45312C62.2969 5.70312 62.9219 4.1875 64.1719 2.90625C66.0781 0.96875 68.8438 0 72.4688 0C75.3125 0 77.9688 0.609375 80.4375 1.82812C80.4375 1.54688 80.4531 1.29687 80.4844 1.07812C80.6094 0.484375 81.1094 0.1875 81.9844 0.1875V8.57812H80.2969C80.2969 6.85938 79.8594 5.375 78.9844 4.125C77.6719 2.28125 75.7344 1.35938 73.1719 1.35938C72.3594 1.35938 71.5938 1.5 70.875 1.78125C69.0625 2.46875 68.1562 3.75 68.1562 5.625C68.1562 6.34375 68.3281 7.04688 68.6719 7.73438C69.3281 9.01562 71 10.3281 73.6875 11.6719C76.625 13.1094 78.3125 13.9531 78.75 14.2031C81.6875 16.0156 83.1562 18.25 83.1562 20.9062Z" fill="#AAA3A3"/>
</svg>
