<svg width="62" height="30" viewBox="0 0 62 30" fill="none" xmlns="http://www.w3.org/2000/svg">
<path d="M13.2656 28.5938H0V27.3281H3.75V1.73438H0V0.46875H13.2656V1.73438H9.51562V27.3281H12C12.6562 27.3906 13.0781 27.8125 13.2656 28.5938ZM33.0469 15.75H45.9375V17.0156H42.75V28.5938L37.6406 27.4688C35.5781 28.5 33.2812 29.0156 30.75 29.0156C27.5625 29.0156 24.7188 28.1719 22.2188 26.4844C18.3438 23.8281 16.4062 19.7969 16.4062 14.3906C16.4062 10.0156 17.7656 6.5 20.4844 3.84375C23.1719 1.28125 26.5625 0 30.6562 0C32.9688 0 35.1719 0.46875 37.2656 1.40625L41.5781 0.515625L41.7656 10.1719H40.4062C40.0312 8.57812 39.5781 7.20312 39.0469 6.04688C37.5469 2.95312 35.0625 1.40625 31.5938 1.40625C25.8125 1.4375 22.9062 5.82812 22.875 14.5781C22.875 16.8906 23.0625 18.8906 23.4375 20.5781C24.4688 25.2656 27.1094 27.6094 31.3594 27.6094C33.7031 27.6094 35.625 26.875 37.125 25.4062V17.0156H33.0469V15.75ZM61.5469 28.5938H48.2812V27.3281H52.0312V1.73438H48.2812V0.46875H61.5469V1.73438H57.7969V27.3281H60.2812C60.9375 27.3906 61.3594 27.8125 61.5469 28.5938Z" fill="#AAA3A3"/>
</svg>
