<svg width="49" height="50" viewBox="0 0 49 50" fill="none" xmlns="http://www.w3.org/2000/svg">
<path d="M6.125 25C6.125 27.4623 6.60028 29.9005 7.52371 32.1753C8.44714 34.4502 9.80064 36.5172 11.5069 38.2582C13.2132 39.9993 15.2388 41.3805 17.4682 42.3227C19.6976 43.265 22.087 43.75 24.5 43.75C26.913 43.75 29.3025 43.265 31.5318 42.3227C33.7612 41.3805 35.7868 39.9993 37.4931 38.2582C39.1994 36.5172 40.5529 34.4502 41.4763 32.1753C42.3997 29.9005 42.875 27.4623 42.875 25C42.875 22.5377 42.3997 20.0995 41.4763 17.8247C40.5529 15.5498 39.1994 13.4828 37.4931 11.7417C35.7868 10.0006 33.7612 8.61953 31.5318 7.67726C29.3025 6.73498 26.913 6.25 24.5 6.25C22.087 6.25 19.6976 6.73498 17.4682 7.67726C15.2388 8.61953 13.2132 10.0006 11.5069 11.7417C9.80064 13.4828 8.44714 15.5498 7.52371 17.8247C6.60028 20.0995 6.125 22.5377 6.125 25Z" stroke="#FFC505" stroke-width="2" stroke-linecap="round" stroke-linejoin="round"/>
<path d="M28.3119 20.3125C27.8096 19.3125 26.8664 18.7105 25.8619 18.75H23.1383C21.6356 18.75 20.4167 20.1459 20.4167 21.875C20.4167 23.598 21.6356 24.998 23.1383 24.998H25.8619C27.3645 24.998 28.5834 26.3959 28.5834 28.123C28.5834 29.848 27.3645 31.2459 25.8619 31.2459H23.1383C22.1338 31.2855 21.1905 30.6834 20.6883 29.6834M24.5001 14.5834V18.75M24.5001 31.25V35.4167" stroke="#FFC505" stroke-width="2" stroke-linecap="round" stroke-linejoin="round"/>
</svg>
