<svg width="45" height="45" viewBox="0 0 45 45" fill="none" xmlns="http://www.w3.org/2000/svg">
<path d="M39.2626 24.4594C39.6597 21.0624 39.0152 17.6249 37.4146 14.6025C35.814 11.58 33.3327 9.11525 30.2997 7.53481C27.2666 5.95437 23.8249 5.33284 20.4307 5.75259C17.0364 6.17233 13.8498 7.61354 11.2931 9.88523C8.73642 12.1569 6.93035 15.1519 6.11421 18.4732C5.29808 21.7945 5.51041 25.2854 6.72307 28.4833C7.93572 31.6812 10.0915 34.4352 12.9046 36.3803C15.7178 38.3254 19.0556 39.3697 22.4757 39.375M6.75008 16.875H38.2501M6.75008 28.125H24.3751" stroke="#FFC505" stroke-width="2" stroke-linecap="round" stroke-linejoin="round"/>
<path d="M21.5626 5.625C18.4039 10.6868 16.7292 16.5335 16.7292 22.5C16.7292 28.4665 18.4039 34.3132 21.5626 39.375M23.4376 5.625C27.0349 11.3889 28.6964 18.1515 28.1795 24.9262M30.0001 41.25L39.3751 31.875M39.3751 31.875V40.3125M39.3751 31.875H30.9376" stroke="#FFC505" stroke-width="2" stroke-linecap="round" stroke-linejoin="round"/>
</svg>
